<?xml version="1.0" encoding="UTF-8" standalone="no"?><!-- Generator: Gravit.io --><svg xmlns="http://www.w3.org/2000/svg" xmlns:xlink="http://www.w3.org/1999/xlink" style="isolation:isolate" viewBox="0 0 512 372" width="512pt" height="372pt"><defs><clipPath id="_clipPath_DGzGXu8bFLasqOyRRwzsZCUP201bmrE2"><rect width="512" height="372"/></clipPath></defs><g clip-path="url(#_clipPath_DGzGXu8bFLasqOyRRwzsZCUP201bmrE2)"><linearGradient id="_lgradient_1" x1="-0.036036036036036334" y1="1.036036036036036" x2="0.9999999999999989" y2="0"><stop offset="0%" style="stop-color:#235DA4"/><stop offset="100%" style="stop-color:#B300FF"/></linearGradient><rect width="512" height="372" style="fill:url(#_lgradient_1);"/><g><g><defs><filter id="a8QfDfTXnLbBhNmzE18eDOXXfRatcdGt" x="-200%" y="-200%" width="400%" height="400%" filterUnits="objectBoundingBox" color-interpolation-filters="sRGB"><feGaussianBlur xmlns="http://www.w3.org/2000/svg" in="SourceGraphic" stdDeviation="2.146804531419514"/><feOffset xmlns="http://www.w3.org/2000/svg" dx="0" dy="0" result="pf_100_offsetBlur"/><feFlood xmlns="http://www.w3.org/2000/svg" flood-color="#000000" flood-opacity="0.65"/><feComposite xmlns="http://www.w3.org/2000/svg" in2="pf_100_offsetBlur" operator="in" result="pf_100_dropShadow"/><feBlend xmlns="http://www.w3.org/2000/svg" in="SourceGraphic" in2="pf_100_dropShadow" mode="normal"/></filter></defs><g filter="url(#a8QfDfTXnLbBhNmzE18eDOXXfRatcdGt)" style="mix-blend-mode:normal;" opacity="0.75"><path d="M 349.75 40 L 492.25 40 C 493.768 40 495 41.232 495 42.75 L 495 87.25 C 495 88.768 493.768 90 492.25 90 L 349.75 90 C 348.232 90 347 88.768 347 87.25 L 347 42.75 C 347 41.232 348.232 40 349.75 40 Z" style="stroke:none;fill:#000000;stroke-miterlimit:10;"/></g><g style="mix-blend-mode:normal;" opacity="0.57"><path d="M 366 49.722 L 366 49.722 C 374.279 49.722 381 56.443 381 64.722 L 381 64.722 C 381 73.001 374.279 79.722 366 79.722 L 366 79.722 C 357.721 79.722 351 73.001 351 64.722 L 351 64.722 C 351 56.443 357.721 49.722 366 49.722 Z" style="stroke:none;fill:#FFFFFF;stroke-miterlimit:10;"/></g><g style="mix-blend-mode:normal;" opacity="0.25"><path d="M 388.778 49.722 L 472.222 49.722 C 473.755 49.722 475 50.967 475 52.5 L 475 52.5 C 475 54.033 473.755 55.278 472.222 55.278 L 388.778 55.278 C 387.245 55.278 386 54.033 386 52.5 L 386 52.5 C 386 50.967 387.245 49.722 388.778 49.722 Z" style="stroke:none;fill:#FFFFFF;stroke-miterlimit:10;"/></g><g style="mix-blend-mode:normal;" opacity="0.25"><path d="M 388.778 58.056 L 472.222 58.056 C 473.755 58.056 475 59.3 475 60.833 L 475 60.833 C 475 62.366 473.755 63.611 472.222 63.611 L 388.778 63.611 C 387.245 63.611 386 62.366 386 60.833 L 386 60.833 C 386 59.3 387.245 58.056 388.778 58.056 Z" style="stroke:none;fill:#FFFFFF;stroke-miterlimit:10;"/></g><g style="mix-blend-mode:normal;" opacity="0.25"><path d="M 388.778 66.389 L 472.222 66.389 C 473.755 66.389 475 67.634 475 69.167 L 475 69.167 C 475 70.7 473.755 71.944 472.222 71.944 L 388.778 71.944 C 387.245 71.944 386 70.7 386 69.167 L 386 69.167 C 386 67.634 387.245 66.389 388.778 66.389 Z" style="stroke:none;fill:#FFFFFF;stroke-miterlimit:10;"/></g><g style="mix-blend-mode:normal;" opacity="0.25"><path d="M 388.778 74.722 L 472.222 74.722 C 473.755 74.722 475 75.967 475 77.5 L 475 77.5 C 475 79.033 473.755 80.278 472.222 80.278 L 388.778 80.278 C 387.245 80.278 386 79.033 386 77.5 L 386 77.5 C 386 75.967 387.245 74.722 388.778 74.722 Z" style="stroke:none;fill:#FFFFFF;stroke-miterlimit:10;"/></g><rect x="483.262" y="49.48" width="0.869" height="5.646" transform="matrix(0.707,0.707,-0.707,0.707,178.656,-326.706)" fill="rgb(255,255,255)"/><rect x="483.262" y="49.48" width="0.869" height="5.646" transform="matrix(-0.707,0.707,-0.707,-0.707,862.706,-252.738)" fill="rgb(255,255,255)"/></g><g><defs><filter id="A7Rjcxbtck16foJ6Vt73G5LcMIhJ9VSQ" x="-200%" y="-200%" width="400%" height="400%" filterUnits="objectBoundingBox" color-interpolation-filters="sRGB"><feGaussianBlur xmlns="http://www.w3.org/2000/svg" in="SourceGraphic" stdDeviation="2.146804531419514"/><feOffset xmlns="http://www.w3.org/2000/svg" dx="0" dy="0" result="pf_100_offsetBlur"/><feFlood xmlns="http://www.w3.org/2000/svg" flood-color="#000000" flood-opacity="0.65"/><feComposite xmlns="http://www.w3.org/2000/svg" in2="pf_100_offsetBlur" operator="in" result="pf_100_dropShadow"/><feBlend xmlns="http://www.w3.org/2000/svg" in="SourceGraphic" in2="pf_100_dropShadow" mode="normal"/></filter></defs><g filter="url(#A7Rjcxbtck16foJ6Vt73G5LcMIhJ9VSQ)" style="mix-blend-mode:normal;" opacity="0.75"><path d="M 349.75 103 L 492.25 103 C 493.768 103 495 104.232 495 105.75 L 495 150.25 C 495 151.768 493.768 153 492.25 153 L 349.75 153 C 348.232 153 347 151.768 347 150.25 L 347 105.75 C 347 104.232 348.232 103 349.75 103 Z" style="stroke:none;fill:#000000;stroke-miterlimit:10;"/></g><g style="mix-blend-mode:normal;" opacity="0.57"><path d="M 366 112.722 L 366 112.722 C 374.279 112.722 381 119.443 381 127.722 L 381 127.722 C 381 136.001 374.279 142.722 366 142.722 L 366 142.722 C 357.721 142.722 351 136.001 351 127.722 L 351 127.722 C 351 119.443 357.721 112.722 366 112.722 Z" style="stroke:none;fill:#FFFFFF;stroke-miterlimit:10;"/></g><g style="mix-blend-mode:normal;" opacity="0.25"><path d="M 388.778 112.722 L 472.222 112.722 C 473.755 112.722 475 113.967 475 115.5 L 475 115.5 C 475 117.033 473.755 118.278 472.222 118.278 L 388.778 118.278 C 387.245 118.278 386 117.033 386 115.5 L 386 115.5 C 386 113.967 387.245 112.722 388.778 112.722 Z" style="stroke:none;fill:#FFFFFF;stroke-miterlimit:10;"/></g><g style="mix-blend-mode:normal;" opacity="0.25"><path d="M 388.778 121.056 L 472.222 121.056 C 473.755 121.056 475 122.3 475 123.833 L 475 123.833 C 475 125.366 473.755 126.611 472.222 126.611 L 388.778 126.611 C 387.245 126.611 386 125.366 386 123.833 L 386 123.833 C 386 122.3 387.245 121.056 388.778 121.056 Z" style="stroke:none;fill:#FFFFFF;stroke-miterlimit:10;"/></g><g style="mix-blend-mode:normal;" opacity="0.25"><path d="M 388.778 129.389 L 472.222 129.389 C 473.755 129.389 475 130.634 475 132.167 L 475 132.167 C 475 133.7 473.755 134.944 472.222 134.944 L 388.778 134.944 C 387.245 134.944 386 133.7 386 132.167 L 386 132.167 C 386 130.634 387.245 129.389 388.778 129.389 Z" style="stroke:none;fill:#FFFFFF;stroke-miterlimit:10;"/></g><g style="mix-blend-mode:normal;" opacity="0.25"><path d="M 388.778 137.722 L 472.222 137.722 C 473.755 137.722 475 138.967 475 140.5 L 475 140.5 C 475 142.033 473.755 143.278 472.222 143.278 L 388.778 143.278 C 387.245 143.278 386 142.033 386 140.5 L 386 140.5 C 386 138.967 387.245 137.722 388.778 137.722 Z" style="stroke:none;fill:#FFFFFF;stroke-miterlimit:10;"/></g><rect x="483.262" y="112.48" width="0.869" height="5.646" transform="matrix(0.707,0.707,-0.707,0.707,223.203,-308.254)" fill="rgb(255,255,255)"/><rect x="483.262" y="112.48" width="0.869" height="5.646" transform="matrix(-0.707,0.707,-0.707,-0.707,907.254,-145.19)" fill="rgb(255,255,255)"/></g><g><defs><filter id="tmymigTQ3dcDTTFHmCs5gfBM0l6E0VNF" x="-200%" y="-200%" width="400%" height="400%" filterUnits="objectBoundingBox" color-interpolation-filters="sRGB"><feGaussianBlur xmlns="http://www.w3.org/2000/svg" in="SourceGraphic" stdDeviation="2.146804531419514"/><feOffset xmlns="http://www.w3.org/2000/svg" dx="0" dy="0" result="pf_100_offsetBlur"/><feFlood xmlns="http://www.w3.org/2000/svg" flood-color="#000000" flood-opacity="0.65"/><feComposite xmlns="http://www.w3.org/2000/svg" in2="pf_100_offsetBlur" operator="in" result="pf_100_dropShadow"/><feBlend xmlns="http://www.w3.org/2000/svg" in="SourceGraphic" in2="pf_100_dropShadow" mode="normal"/></filter></defs><g filter="url(#tmymigTQ3dcDTTFHmCs5gfBM0l6E0VNF)" style="mix-blend-mode:normal;" opacity="0.75"><path d="M 349.75 166 L 492.25 166 C 493.768 166 495 167.232 495 168.75 L 495 213.25 C 495 214.768 493.768 216 492.25 216 L 349.75 216 C 348.232 216 347 214.768 347 213.25 L 347 168.75 C 347 167.232 348.232 166 349.75 166 Z" style="stroke:none;fill:#000000;stroke-miterlimit:10;"/></g><g style="mix-blend-mode:normal;" opacity="0.57"><path d="M 366 175.722 L 366 175.722 C 374.279 175.722 381 182.443 381 190.722 L 381 190.722 C 381 199.001 374.279 205.722 366 205.722 L 366 205.722 C 357.721 205.722 351 199.001 351 190.722 L 351 190.722 C 351 182.443 357.721 175.722 366 175.722 Z" style="stroke:none;fill:#FFFFFF;stroke-miterlimit:10;"/></g><g style="mix-blend-mode:normal;" opacity="0.25"><path d="M 388.778 175.722 L 472.222 175.722 C 473.755 175.722 475 176.967 475 178.5 L 475 178.5 C 475 180.033 473.755 181.278 472.222 181.278 L 388.778 181.278 C 387.245 181.278 386 180.033 386 178.5 L 386 178.5 C 386 176.967 387.245 175.722 388.778 175.722 Z" style="stroke:none;fill:#FFFFFF;stroke-miterlimit:10;"/></g><g style="mix-blend-mode:normal;" opacity="0.25"><path d="M 388.778 184.056 L 472.222 184.056 C 473.755 184.056 475 185.3 475 186.833 L 475 186.833 C 475 188.366 473.755 189.611 472.222 189.611 L 388.778 189.611 C 387.245 189.611 386 188.366 386 186.833 L 386 186.833 C 386 185.3 387.245 184.056 388.778 184.056 Z" style="stroke:none;fill:#FFFFFF;stroke-miterlimit:10;"/></g><g style="mix-blend-mode:normal;" opacity="0.25"><path d="M 388.778 192.389 L 472.222 192.389 C 473.755 192.389 475 193.634 475 195.167 L 475 195.167 C 475 196.7 473.755 197.944 472.222 197.944 L 388.778 197.944 C 387.245 197.944 386 196.7 386 195.167 L 386 195.167 C 386 193.634 387.245 192.389 388.778 192.389 Z" style="stroke:none;fill:#FFFFFF;stroke-miterlimit:10;"/></g><g style="mix-blend-mode:normal;" opacity="0.25"><path d="M 388.778 200.722 L 472.222 200.722 C 473.755 200.722 475 201.967 475 203.5 L 475 203.5 C 475 205.033 473.755 206.278 472.222 206.278 L 388.778 206.278 C 387.245 206.278 386 205.033 386 203.5 L 386 203.5 C 386 201.967 387.245 200.722 388.778 200.722 Z" style="stroke:none;fill:#FFFFFF;stroke-miterlimit:10;"/></g><rect x="483.262" y="175.48" width="0.869" height="5.646" transform="matrix(0.707,0.707,-0.707,0.707,267.751,-289.801)" fill="rgb(255,255,255)"/><rect x="483.262" y="175.48" width="0.869" height="5.646" transform="matrix(-0.707,0.707,-0.707,-0.707,951.801,-37.642)" fill="rgb(255,255,255)"/></g><g><defs><filter id="xPg78tLfmULM5AxhTGVbMiyoIsCfNxn1" x="-200%" y="-200%" width="400%" height="400%" filterUnits="objectBoundingBox" color-interpolation-filters="sRGB"><feGaussianBlur xmlns="http://www.w3.org/2000/svg" in="SourceGraphic" stdDeviation="2.146804531419514"/><feOffset xmlns="http://www.w3.org/2000/svg" dx="0" dy="0" result="pf_100_offsetBlur"/><feFlood xmlns="http://www.w3.org/2000/svg" flood-color="#000000" flood-opacity="0.65"/><feComposite xmlns="http://www.w3.org/2000/svg" in2="pf_100_offsetBlur" operator="in" result="pf_100_dropShadow"/><feBlend xmlns="http://www.w3.org/2000/svg" in="SourceGraphic" in2="pf_100_dropShadow" mode="normal"/></filter></defs><g filter="url(#xPg78tLfmULM5AxhTGVbMiyoIsCfNxn1)" style="mix-blend-mode:normal;" opacity="0.75"><path d="M 349.75 229 L 492.25 229 C 493.768 229 495 230.232 495 231.75 L 495 276.25 C 495 277.768 493.768 279 492.25 279 L 349.75 279 C 348.232 279 347 277.768 347 276.25 L 347 231.75 C 347 230.232 348.232 229 349.75 229 Z" style="stroke:none;fill:#000000;stroke-miterlimit:10;"/></g><g style="mix-blend-mode:normal;" opacity="0.57"><path d="M 366 238.722 L 366 238.722 C 374.279 238.722 381 245.443 381 253.722 L 381 253.722 C 381 262.001 374.279 268.722 366 268.722 L 366 268.722 C 357.721 268.722 351 262.001 351 253.722 L 351 253.722 C 351 245.443 357.721 238.722 366 238.722 Z" style="stroke:none;fill:#FFFFFF;stroke-miterlimit:10;"/></g><g style="mix-blend-mode:normal;" opacity="0.25"><path d="M 388.778 238.722 L 472.222 238.722 C 473.755 238.722 475 239.967 475 241.5 L 475 241.5 C 475 243.033 473.755 244.278 472.222 244.278 L 388.778 244.278 C 387.245 244.278 386 243.033 386 241.5 L 386 241.5 C 386 239.967 387.245 238.722 388.778 238.722 Z" style="stroke:none;fill:#FFFFFF;stroke-miterlimit:10;"/></g><g style="mix-blend-mode:normal;" opacity="0.25"><path d="M 388.778 247.056 L 472.222 247.056 C 473.755 247.056 475 248.3 475 249.833 L 475 249.833 C 475 251.366 473.755 252.611 472.222 252.611 L 388.778 252.611 C 387.245 252.611 386 251.366 386 249.833 L 386 249.833 C 386 248.3 387.245 247.056 388.778 247.056 Z" style="stroke:none;fill:#FFFFFF;stroke-miterlimit:10;"/></g><g style="mix-blend-mode:normal;" opacity="0.25"><path d="M 388.778 255.389 L 472.222 255.389 C 473.755 255.389 475 256.634 475 258.167 L 475 258.167 C 475 259.7 473.755 260.944 472.222 260.944 L 388.778 260.944 C 387.245 260.944 386 259.7 386 258.167 L 386 258.167 C 386 256.634 387.245 255.389 388.778 255.389 Z" style="stroke:none;fill:#FFFFFF;stroke-miterlimit:10;"/></g><g style="mix-blend-mode:normal;" opacity="0.25"><path d="M 388.778 263.722 L 472.222 263.722 C 473.755 263.722 475 264.967 475 266.5 L 475 266.5 C 475 268.033 473.755 269.278 472.222 269.278 L 388.778 269.278 C 387.245 269.278 386 268.033 386 266.5 L 386 266.5 C 386 264.967 387.245 263.722 388.778 263.722 Z" style="stroke:none;fill:#FFFFFF;stroke-miterlimit:10;"/></g><rect x="483.262" y="238.48" width="0.869" height="5.646" transform="matrix(0.707,0.707,-0.707,0.707,312.299,-271.349)" fill="rgb(255,255,255)"/><rect x="483.262" y="238.48" width="0.869" height="5.646" transform="matrix(-0.707,0.707,-0.707,-0.707,996.349,69.905)" fill="rgb(255,255,255)"/></g></g><g><rect x="0" y="0" width="512" height="25" transform="matrix(1,0,0,1,0,0)" fill="rgb(0,0,0)" fill-opacity="0.67"/></g><g opacity="0.39"><path d=" M 496.429 5 C 491.694 5 487.857 8.117 487.857 11.964 C 487.857 13.625 488.574 15.145 489.766 16.34 C 489.347 18.028 487.948 19.531 487.931 19.548 C 487.857 19.625 487.837 19.739 487.881 19.839 C 487.924 19.94 488.018 20 488.125 20 C 490.345 20 492.009 18.935 492.833 18.279 C 493.927 18.691 495.143 18.929 496.429 18.929 C 501.163 18.929 505 15.811 505 11.964 C 505 8.117 501.163 5 496.429 5 Z " fill="rgb(255,255,255)"/></g></g></svg>